<svg xmlns="http://www.w3.org/2000/svg" width="200" height="200" fill="none" viewBox="0 0 200 200">
  <path fill="#000" fill-opacity=".5" d="M89.896 89.548a14.63 14.63 0 000 20.904l35.962 35.438c8.909 8.78 24.142 2.562 24.142-9.854 0-3.696-1.49-7.241-4.142-9.854l-15.962-15.73a14.63 14.63 0 010-20.904l15.962-15.73A13.834 13.834 0 00150 63.964c0-12.416-15.233-18.633-24.142-9.854L89.896 89.548z"/>
  <path fill="#222" d="M50 134.827c0 13.491 16.157 20.247 25.607 10.707l34.497-34.826c5.858-5.914 5.858-15.502 0-21.416L75.607 54.466C66.157 44.926 50 51.682 50 65.173v69.654z"/>
</svg>